<svg width="102" height="36" viewBox="0 0 102 36" fill="none" xmlns="http://www.w3.org/2000/svg">
<path id="Vector" d="M102 0L27.3779 32.0362C21.1899 34.6759 15.9921 36 11.7888 36C7.02876 36 3.57349 34.3202 1.43147 30.9563C0.0842094 28.7966 -0.311044 26.0583 0.241461 22.7373C0.793965 19.4163 2.26448 15.881 4.6445 12.1186C6.62926 9.07606 9.88054 5.07797 14.4068 0.119985C12.8716 2.55683 11.7458 5.23248 11.0748 8.03904C9.88478 13.1599 10.9558 16.918 14.2878 19.3177C15.8731 20.4361 18.0533 20.9975 20.8329 20.9975C23.0514 20.9975 25.5504 20.6375 28.3299 19.9176L102 0Z" fill="#FFFAFA"/>
</svg>
